<svg viewBox="0 0 361.38 161.45"><g><path class="cls-1" d="M141.89,48.46V26.08l-20.84-10.42V109.45h20.84v-39.11l52.34-26.95V21.51l-52.34,26.95Z"/><path class="cls-1" d="M173.78,66.06l20.84-10.39v32.93l31.27-15.63V26.07l20.84-10.42V109.45h-20.84v-15.63l-52.11,26.06v-53.81Z"/><path class="cls-1" d="M257.16,109.45V0l20.84,10.42V119.87l-20.84-10.42Z"/><path class="cls-1" d="M288.33,124.42l52.2-25.37v-.02h-52.11V36.48l20.84-10.42v52.13h31.27V15.65l20.84-10.42V109.47l-73.05,35.79v-20.84Z"/><g><path class="cls-1" d="M93.79,161.45c-3.44,0-6.05-.89-7.81-2.66-1.76-1.77-2.64-4.26-2.64-7.45v-7.58c0-1.98,.4-3.7,1.19-5.17,.79-1.46,1.94-2.6,3.44-3.42,1.5-.82,3.33-1.23,5.48-1.23,1.88,0,3.46,.25,4.74,.74,1.28,.5,2.21,1.05,2.81,1.67,.12,.12,.19,.32,.19,.59v6.28h-3.79c-.27,0-.41-.14-.41-.41v-3.9c-.52-.25-1.07-.43-1.65-.54-.58-.11-1.23-.17-1.95-.17-1.61,0-2.89,.46-3.83,1.38-.94,.92-1.41,2.34-1.41,4.27v7.1c0,1.14,.11,2.12,.33,2.94,.22,.82,.61,1.49,1.15,2.01,.5,.5,1.1,.84,1.82,1.04,.72,.2,1.51,.3,2.38,.3,1.39,0,2.6-.17,3.64-.5,1.04-.33,2.13-.89,3.27-1.65h.63v3.64c0,.25-.06,.43-.19,.56-.59,.57-1.55,1.07-2.86,1.51-1.31,.43-2.83,.65-4.54,.65Z"/><path class="cls-1" d="M116.3,160.71h-4.13c-.3,0-.41-.16-.33-.48,.22-.79,.5-1.85,.84-3.16,.33-1.31,.71-2.79,1.12-4.42,.41-1.64,.83-3.32,1.26-5.06,.43-1.73,.86-3.43,1.26-5.09,.41-1.66,.79-3.18,1.15-4.55,.36-1.38,.65-2.5,.87-3.36h6.95c.25,0,.4,.14,.45,.41,.79,3,1.65,6.27,2.56,9.81,.92,3.54,1.87,7.29,2.86,11.23,.2,.77,.4,1.54,.61,2.32,.21,.78,.4,1.57,.58,2.36h-4.05c-.22,0-.39-.06-.5-.19-.11-.12-.23-.43-.35-.93-.22-.94-.45-1.85-.67-2.73-.22-.88-.43-1.74-.63-2.58h-8.25c-.25,.97-.5,1.98-.76,3.05-.26,1.07-.54,2.19-.84,3.38Zm5.28-22.04c-.27,1.56-.63,3.27-1.08,5.13-.45,1.86-.99,4.04-1.64,6.54h6.32c-.59-2.38-1.12-4.52-1.58-6.43-.46-1.91-.84-3.66-1.13-5.24h-.89Z"/><path class="cls-1" d="M148.33,160.71h-4.35c-.27,0-.41-.14-.41-.41v-21.56h-1.52c-.27,0-.41-.14-.41-.41v-3.64h10.45c5.72,0,8.59,2.55,8.59,7.66v2.34c0,2.4-.67,4.29-2.01,5.67-1.34,1.38-3.51,2.06-6.51,2.06h-3.83v8.29Zm3.75-21.97h-3.75v9.59h3.79c1.29,0,2.24-.27,2.86-.82,.62-.54,.93-1.44,.93-2.68v-2.71c0-1.16-.27-2.01-.82-2.53-.3-.32-.69-.54-1.19-.67-.5-.12-1.1-.19-1.82-.19Z"/><path class="cls-1" d="M189.65,160.71h-16.24c-.27,0-.41-.14-.41-.41v-3.64h6.02v-17.92h-5.61c-.27,0-.41-.14-.41-.41v-3.64h16.24c.27,0,.41,.14,.41,.41v3.64h-5.98v17.92h5.58c.27,0,.41,.14,.41,.41v3.64Z"/><path class="cls-1" d="M213.35,160.71h-4.35c-.27,0-.41-.14-.41-.41v-21.56h-6.39c-.27,0-.41-.14-.41-.41v-3.64h17.95c.27,0,.41,.14,.41,.41v3.64h-6.8v21.97Z"/><path class="cls-1" d="M234.89,160.71h-4.13c-.3,0-.41-.16-.33-.48,.22-.79,.5-1.85,.84-3.16,.33-1.31,.71-2.79,1.12-4.42,.41-1.64,.83-3.32,1.26-5.06,.43-1.73,.85-3.43,1.26-5.09,.41-1.66,.79-3.18,1.15-4.55,.36-1.38,.65-2.5,.87-3.36h6.95c.25,0,.4,.14,.45,.41,.79,3,1.65,6.27,2.56,9.81,.92,3.54,1.87,7.29,2.86,11.23,.2,.77,.4,1.54,.61,2.32,.21,.78,.4,1.57,.58,2.36h-4.05c-.22,0-.39-.06-.5-.19-.11-.12-.23-.43-.35-.93-.22-.94-.45-1.85-.67-2.73-.22-.88-.43-1.74-.63-2.58h-8.25c-.25,.97-.5,1.98-.76,3.05-.26,1.07-.54,2.19-.84,3.38Zm5.28-22.04c-.27,1.56-.63,3.27-1.08,5.13-.45,1.86-.99,4.04-1.64,6.54h6.32c-.59-2.38-1.12-4.52-1.58-6.43-.46-1.91-.84-3.66-1.13-5.24h-.89Z"/><path class="cls-1" d="M262.39,160.71c-.27,0-.41-.14-.41-.41v-25.61h4.35c.27,0,.41,.14,.41,.41v21.56h8.07v-4.01h3.79c.27,0,.41,.14,.41,.41v7.66h-16.62Z"/></g><g><polygon class="cls-1" points="36.55 80.14 36.55 100.77 0 119.05 0 26.17 20.65 36.49 20.65 88.09 36.55 80.14"/><polygon class="cls-1" points="110.12 15.37 110.12 108.24 89.49 97.93 89.49 46.33 73.58 54.29 73.58 33.64 110.12 15.37"/><polygon class="cls-1" points="44.75 119.17 44.75 61.76 39.25 64.39 37.9 65.06 37.9 65.03 30.95 68.34 65.39 15.2 65.39 72.62 72.23 69.36 79.19 66.05 44.75 119.17"/></g></g></svg>